<svg xmlns="http://www.w3.org/2000/svg" width="661" height="661" viewBox="0 0 661 661"><path fill="#fbce51" fill-rule="evenodd" d="M330.2 660.2c-182.4 0-330-147.5-330-330C.2 147.8 147.8.2 330.2.2c182.5 0 330 147.6 330 330 0 182.5-147.5 330-330 330"/><path d="m472.8 613.3-.4-.8 1.5-1-4.2-8.4-.3 2.8-1.9 8.2.2.5 1.5-.5.4.8-4.6 2.3-.4-.8 1.3-.9-5.2-10.4-1.4.5-.4-.8 4.7-2.3.4.8-1.4.9 4.2 8.4.3-2.5 2-8.5-.4-.6-1.6.6-.4-.8 4.7-2.3.4.8-1.4.8 5.1 10.5 1.5-.5.4.9zm-11.4 5.2c-.5.4-.9.6-1.2.8-.4.2-.7.4-1.1.5-1.4.7-2.6 1-3.6.8-.9-.2-1.6-.6-2-1.7-.4-.9-.5-1.7-.2-2.6.4-.8.9-1.4 1.7-2-1 .5-2 .5-2.8.3-.9-.3-1.4-.9-1.8-1.7-.6-1.3-.6-2.3-.2-3.3.5-1 1.6-1.8 3.2-2.6.7-.3 1.4-.6 1.9-.6.5-.2 1.1-.2 1.4-.3h.6l1 3.1-.8.4-1.5-2c-.7-.1-1.5.1-2.5.5-.8.3-1.2.8-1.4 1.5s-.1 1.4.3 2.3c.3.7.8 1.2 1.4 1.5q1 .4 2.5-.2l1.2-.5.4.9-1 .4c-.5.2-.8.5-1.3.9q-.4.7-.6 1.4c-.1.5 0 1.1.2 1.7.3.8.8 1.2 1.4 1.4.6.1 1.2 0 2-.3.5-.3.9-.5 1.2-.8q.5-.5.5-.8l-.3-1.7 1.1-.5 1.3 2.6c-.1 0-.5.2-1 .6m-15.2 5.5 1.5-.3.4.9-2.4.9q-.6.3-1.5.6c-.6.3-.9.5-1.2.6-1.6.6-2.8.8-3.7.5-.9-.2-1.5-.8-1.9-1.8-.3-.8-.3-1.6 0-2.3.2-.8.8-1.5 1.5-1.9-1.2.4-2.1.6-2.9.3-.9-.4-1.5-.9-1.9-2-.5-1.1-.4-2.2.2-3.3.6-1 1.8-1.9 3.7-2.7l1.2-.3c.9-.3 1.5-.6 1.7-.6l2.3-.9.2.9-1.4.7zm-7.9-9.6c-1.1.5-1.9 1-2.3 1.7s-.3 1.4 0 2.3c.4.9.8 1.5 1.5 1.7q.9.4 2.5-.2c1.1-.5 1.9-.7 2.3-.9l-2-5.2c-.4 0-1 .2-2 .6m3.3 6-.9.4q-1.2.4-1.6 1.4c-.3.6-.3 1.3.1 2.2.3.8.8 1.3 1.3 1.5.6.3 1.4.2 2.4-.2.5-.2.8-.4 1.3-.6l.4-.2-1.9-4.9c-.2.1-.6.3-1.1.4m-10.3 10.3-1.9.7-8.4-10.8-1.2.2-.2-.9 4.7-1.6.2.9-1.4.7 1.8 2.4 5.1-1.8v-2.9l-1.6.3-.3-.9 4.2-1.4.3.9-1 .5zm-2-2.4.9 1.3-.1-1.7-.2-6.3-4.5 1.6zm-12.6-6.9c1.2.3 2 .8 2.8 1.8.8.9 1.4 2 1.7 3.4.4 1.3.5 2.5.2 3.8-.2 1.3-.8 2.2-1.6 3s-1.8 1.5-3 1.9c-.9.2-2.1.4-3.4.5h-.6l-.8-3.2 1.2-.4 1.2 2.1c.2.1.6.2 1 .2s.9-.2 1.6-.3c.7-.2 1.4-.6 1.8-1.2.5-.6.8-1.5.8-2.4.1-.9 0-2-.3-3.1s-.8-2.2-1.4-2.9c-.6-.8-1.2-1.5-2-1.8-.7-.3-1.6-.4-2.5-.1-.6.1-1.1.4-1.3.5-.3.1-.6.5-.7.7l-.3 2-1.1.2-.3-2.6c.2-.1.5-.3 1-.6q.6-.45 1.2-.6c.4-.3.9-.4 1.5-.6 1-.5 2.2-.6 3.3-.3M402.6 636c-.3 1-.9 2-1.6 2.6-.8.7-1.6 1.2-2.6 1.3-1.2.3-2.3.2-3.2-.1-.9-.4-1.8-1-2.4-1.9-.7-.9-1.3-2-1.5-3.3q-.5-2.3-.1-4.1c.2-1.2.8-2.2 1.5-3s1.7-1.3 2.8-1.6c1.2-.3 2.3-.3 3.3.1 1 .3 1.8 1 2.5 1.8s1.2 1.9 1.4 3.3l2.9-.6-1.2-5.4-1.6.2-.1-.8 5-1.2.2.8-1.5.5 2.7 11.4 1.4-.2.2.9-4.9 1.1-.2-.8 1.5-.6-1.1-4.8-3 .7c0 1.4-.1 2.6-.4 3.7m-2 .8c.4-1.2.4-2.7-.1-4.8-.4-1.7-1.1-3.1-2-4-.8-.8-1.9-1.2-3.2-.9-1.2.3-1.9 1-2.3 2.1s-.3 2.8.2 4.8c.4 1.8 1 3.2 1.9 4 .8 1 1.9 1.2 3 .9 1.2-.2 2-.9 2.5-2.1m-19.2-1.6c-.6-.6-1.4-1.3-2.3-2.3-.6-.7-1-1.2-1.3-1.5q-.5-.4-.8-.5l-.7-.1-.2-.8 2.3-.4q.4-.1 1 .6c.4.4 1.1 1 1.8 1.9.8 1.1 1.4 1.8 2 2.3q.7.8 1.3.7l1.2-.2-.9-5.3-1.7.1-.1-.8 5-.9.1.9-1.4.4 2 11.5h1.5l.2.9-4.9.9-.1-1.2 1.5-.5-1-5.3-1.6.2-2.8 6 1.6-.1.1 1-4.5.8-.1-1 1.4-.4 3.1-6.1c-.5 0-1.1-.4-1.7-.8M373 631c1 .4 1.7 1.2 2.3 2.2.5 1 .9 2.2 1.1 3.6.3 1.4.1 2.7-.3 3.9q-.6 1.65-1.8 2.7c-.9.7-1.9 1.2-3.1 1.3-2 .3-3.6-.1-4.7-1.2s-1.9-2.7-2.2-4.9c-.2-1.4 0-2.7.4-3.9s1-2 1.9-2.8q1.3-1 3.1-1.3c1.2-.2 2.3-.1 3.3.4m.8 10.8c.5-1.2.7-2.7.4-4.8-.2-1.9-.7-3.2-1.6-4.3q-1.2-1.5-3-1.2c-1.2.2-2 .8-2.5 2-.6 1.1-.8 2.7-.5 4.7.2 1.9.7 3.3 1.6 4.2.8.9 1.8 1.4 3 1.2 1.2 0 2.1-.6 2.6-1.8m-12.2 2.7 1.5.1.1 1-2.5.2c-.4 0-1 .2-1.6.2-.6.1-1 .1-1.3.2-1.6.1-2.9 0-3.7-.5s-1.2-1.3-1.3-2.3c-.1-.9.1-1.7.5-2.3s1.1-1.2 2-1.4c-1.1.1-2.1-.1-2.9-.6s-1.2-1.3-1.2-2.3c-.1-1.2.2-2.2 1-3.1.9-.9 2.2-1.5 4.3-1.6.5-.1.9-.1 1.4-.1.9 0 1.5-.1 1.7 0l2.5-.3.1 1-1.5.3zm-5-11.5c-1.3.1-2.2.5-2.6 1.1q-.9.8-.7 2.3c.1.9.4 1.6.9 1.9.6.4 1.4.6 2.5.5 1.2-.1 2.1-.2 2.4-.3l-.5-5.5c-.3-.1-1-.1-2 0m1.5 6.8-1 .1c-.9.1-1.6.4-1.9.9s-.5 1.3-.5 2.1c.1.9.3 1.6.9 1.9.5.3 1.2.5 2.3.4.4-.1.9 0 1.4-.2l.4-.1-.4-5.2c-.3 0-.6 0-1.2.1m-25.8 7.5-.1-1 1.6-.3-.3-11.6-1.8-.1-.1-1 5.3-.1v.9l-1.6.2.4 11.7 5.9-.1-.3-11.7-1.7-.2-.1-.9 5.3-.1v.9l-1.5.2.4 11.6 1.6.3v.9zm-4.4-13.2c.8.6 1.5 1.4 1.9 2.5.5 1.1.6 2.3.7 3.8-.1 1.4-.3 2.6-.9 3.7s-1.3 1.9-2.3 2.4c-1 .6-2.1.9-3.2.9-1.9 0-3.4-.7-4.4-1.9-1-1.3-1.4-2.9-1.4-5.2-.1-1.4.3-2.7.9-3.8.6-1 1.3-2 2.3-2.5.9-.6 2.1-.9 3.3-.9s2.2.3 3.1 1m-.8 10.8c.7-1.1 1.1-2.6 1.2-4.6-.1-1.9-.4-3.4-1-4.5-.6-1-1.6-1.6-2.8-1.6-1.2-.1-2.2.5-2.9 1.5-.7 1.1-1.1 2.7-1.1 4.7s.2 3.3.9 4.5c.6 1 1.6 1.6 2.8 1.6 1.2-.2 2.1-.6 2.9-1.6m-14.7-6.9c.3-1.8.8-3 1.4-3.8.3-.5.6-.8 1-1 .3-.2.8-.3 1.2-.3.6.1 1 .1 1.3.1l-.1 1.6c-.2-.1-.7-.1-1.3-.2q-.3-.1-.7.1c-.2.2-.4.3-.5.5-1.1 1.4-1.7 4.4-2 8.9l-.1 1.5 2.1.4v.9l-10.8-.6v-.9l1.8-.2.8-11.6-1.9-.3v-.9l5.7.4v.9l-2 .1-.7 11.6 3.8.2.1-1.7c.3-2.1.5-4.1.9-5.7m-11.9 6.6 1.5.5-.1.8-9.5-1V642l1.1.1.4 1.8 4.6.6.6-5.2-3.1-.3-.4 1.5-1-.1.4-4.2h1l.1 1.7 3 .4.6-5.6-5.3-.4-1.2 2.3-1.1-.5.9-3.3 10.3 1.2-.2.8h-1.5zm-15.4-1.6 3.1.3 1.2-3.8 1.2.3-1 4.9-11.6-1.8.6-4.9 1.1.2.1 4 3.2.5 1.7-11.7-2.6-.5.1-.9 7.1 1-.2.9-2.4-.1zm-13.4-9.2.9.1c.3-.1.8-.5 1.1-1s.9-1.2 1.4-2c.6-.7 1-1.3 1.3-1.8.4-.4.6-.5.8-.5l2.5.5-.1.9-.8.1c-.2 0-.4.1-.7.4-.3.2-.7.7-1.2 1.3-.6.8-1 1.4-1.4 1.8-.5.5-.8.7-1.3.8q1.2.7 1.7 1.7.5 1.1.2 2.5c-.3 1.5-.9 2.4-1.8 2.8-1 .3-2.3.4-3.9.1-.4-.1-.8-.2-1.3-.4-.6-.1-1.1-.3-1.4-.3l-2.6-.5.1-.9 1.6.1 2.3-11.4-1.7-.6.1-.9 5.5 1.1-.2.9-1.8-.2-.9 4.9zm-2.5 6.4q.8.2 1.4.4c1 .1 1.7.1 2.3-.2.6-.4 1-1 1.2-2 .1-1 0-1.9-.4-2.5s-1.1-1-2-1.2c-1-.2-1.6-.4-2-.4l-1.1 5.7zm-10.6-2.3 3.2.7 1.5-3.7 1.2.3-1.5 4.8-11.3-2.7 1-5 1.1.3-.4 4 3.2.9 2.7-11.5-2.6-.8.2-.9 7 1.7-.2.8-2.4-.3zm-12-15.6c.8.8 1.2 1.8 1.4 3q.3 1.8-.3 3.9c-.4 1.3-1.1 2.4-1.9 3.2-.8.9-1.9 1.5-3 1.8-1.2.3-2.3.2-3.5-.2-1-.2-2-.7-3.2-1.3l-.6-.3 1.2-3.1 1.2.3-.2 2.4c.1.2.4.4.7.6q.6.3 1.5.6c.8.2 1.5.2 2.2 0s1.5-.7 2-1.5c.6-.8 1.1-1.8 1.4-2.9.3-1.2.5-2.2.4-3.3 0-1-.3-1.9-.7-2.6q-.6-1.1-2-1.5c-.7-.1-1.2-.3-1.6-.3s-.7.1-1 .3l-1.2 1.5-1.1-.5 1.2-2.5c.3.1.7.1 1.2.2h1.3c.4 0 1 .2 1.5.3 1.3.4 2.3.9 3.1 1.9m-18.4 8 .3-.9 1.8.4 3.1-8.8-2.2 1.6-7.2 4.5-.1.5 1.5.7-.3.8-4.8-1.7.3-.8 1.4.3 3.8-11-1.4-.7.3-.8 4.9 1.7-.3.8-1.7-.3-3.1 8.9 2.1-1.6 7.4-4.5.2-.7-1.6-.7.3-.8 4.9 1.7-.3.8-1.5-.3-3.8 11 1.3.7-.3.8zm-19.1-7.1 1.6-4.6 1.2.4-.9 3.7 3.8 1.6 4.3-10.9-2.9-1.4.3-.9 6.8 2.7-.3.8-2-.5-4.2 10.8 1.7.9-.3.9zm-2.6-2.3 1.2.8-.3.9-4.6-2.1.3-.8 1.5.4 2-4.6-6-2.6-2 4.5 1.3.9-.3.8-4.6-2 .3-.8 1.5.4 4.7-10.7-1.4-.8.4-.8 4.5 2-.3.9-1.5-.5-2.3 5 6 2.6 2.3-5-1.4-.8.3-.8 4.7 2.1-.3.8-1.4-.5zm-17.7-6.9-1.8-.9 1.7-13.6-.9-.6.4-.8 4.4 2.2-.4.8-1.5-.5-.5 2.8 4.9 2.4 2-2.1-1.4-.9.4-.8 4 2-.5.8-1.1-.4zm.3-3.2-.4 1.6 1.2-1.3 4.4-4.5-4.2-2.2zm-7.6-10.6q1.6-2 2.9-2.8c.5-.3.8-.4 1.3-.5q.6 0 1.2.3c.5.3.9.5 1.1.7l-.5 1.4c-.3-.2-.6-.4-1.3-.7q-.2-.3-.5-.2c-.2 0-.5.1-.7.2-1.5.8-3.4 3.3-5.7 7.3l-.8 1.3 1.8 1.3-.4.8-9.4-5.3.4-.8 1.7.7 5.7-10.2-1.6-1.1.4-.8 5.1 2.8-.4.8-1.8-.7-5.6 10 3.3 1.8.8-1.5q1.35-2.7 3-4.8m-28-6.7.5-.7 1.6.7 6.2-9.8-1.3-1.1.5-.8 4.6 3-.5.7-1.6-.7-6.2 9.9 1.4 1.1-.5.7zm12.8 1.6c-1.3-.8-2.1-1.7-2.4-2.8q-.6-1.5.5-3.2c.8-1.2 1.7-1.8 2.9-2s2.4.1 3.7.9c.2.1.4.1.6.3.1.1.3.3.5.3.6.5 1.1.8 1.5 1.2l2.2 1.4-.5.7-1.5-.7-6.2 9.9 1.2 1-.5.8-4.6-2.9.5-.7 1.8.7 2.3-3.6zm5.3-5.5c-.1-.2-.4-.3-.9-.6-.8-.5-1.7-.7-2.4-.5-.8.2-1.5.7-2.1 1.7q-.9 1.2-.6 2.4.3 1.1 1.6 1.9l1.7 1.1 3.4-5.3c-.3-.4-.4-.5-.7-.7m-24.6-2.1 1.1 1.1-.6.8-4-3 .5-.8 1.4.8 3-4.1-5.3-3.9-3 4.1 1 1.1-.5.8-4-3 .6-.8 1.3.7 6.9-9.4-1.1-1 .6-.8 4 3.1-.5.8-1.3-.8-3.2 4.3 5.3 3.9 3.2-4.3-1.2-1.2.5-.8 4.1 3.1-.5.8-1.3-.8zm-15.8-10.4-1.6-1.4 4.6-12.9-.8-.9.6-.7 3.9 3.1-.6.8-1.3-.9-1.1 2.7 4.3 3.5 2.5-1.6-1.2-1.1.6-.7 3.5 2.8-.6.6-1.1-.6zm1-3-.6 1.6 1.4-1 5.2-3.5-3.7-3.1zm-12.1-8 1.3 1.5-.6.7-3.7-3.4 3.8-8 1.2-2.1-2 1.4-7.6 4.4-3.6-3.3.6-.7 1.7 1.3 6.8-9.5-1.1-1.3.6-.7 3.9 3.7-.6.7-1.4-1-5 6.7-2.2 2.9 2.4-1.4 9-5.1.9.9-3.9 8.6-1.6 3.4 2.7-2.5 6.3-5.6-1.2-1.4.5-.6 3.6 3.3-.5.6-1.3-.9z" style="mix-blend-mode:overlay"/><path d="m103.8 552.1-1.5-1.5 6.1-12.2-.6-1 .7-.6 3.4 3.5-.7.7-1.3-1-1.4 2.6 3.9 3.9 2.6-1.4-1-1.2.7-.7 3.1 3.2-.7.6-.9-.6zm1.4-2.9-.8 1.5 1.5-.8 5.7-2.9-3.4-3.4zm-7.7-5.5.8 1.3-.6.6-1.7-1.9c-.3-.3-.6-.7-.9-1-.5-.4-1-.9-1.4-1.3q-1.8-2-1.8-3.6c0-1 .5-1.9 1.5-2.8.7-.6 1.5-1.2 2.3-1.2.9-.2 1.8-.1 2.6.2.8.4 1.6 1 2.3 1.8q.3.4.7.8c.2.2.4.5.5.5l3-2.7-1.6-2.1.7-.6 4.1 4.5-.7.7-1.1-1.1zm2.3-7.2c-.6-.6-1.4-1.1-2.2-1.2s-1.8.4-2.8 1.3q-1.2 1.1-1.2 2.1c0 .8.4 1.6 1.1 2.4.3.2.6.5.9.8l.4.4 5-4.3c-.3-.3-.6-.8-1.2-1.5m-2-10.6c.2 1.1.1 2.2-.5 3.3-.5 1.1-1.4 2.1-2.5 3-1 .9-2.2 1.4-3.4 1.6-1.1.2-2.4.2-3.4-.3-1.2-.4-2.1-1-2.9-2.1-.7-.8-1.3-1.8-1.9-2.9l-.3-.6 2.7-2 .8.9-1.5 1.8c0 .2 0 .5.2 1 .2.4.5.8.9 1.3.5.7 1.1 1.1 1.9 1.3s1.6.1 2.5-.2c.9-.2 1.8-.8 2.8-1.6.9-.7 1.6-1.5 2.1-2.3.6-.9.9-1.8.9-2.6s-.3-1.6-.8-2.3c-.4-.5-.8-.8-1.1-1.1s-.6-.4-.9-.4l-1.9.6-.7-1 2.3-1.3c.2.2.5.5.9.8s.8.5 1.1.8c.4.3.7.7 1.2 1.1q1.4 1.5 1.5 3.2m-30.4-18.6.7-.5 1.2 1.4 7.8-5.2h-2.8l-8.4-.9-.4.3.7 1.6-.7.5-2.8-4.3.7-.6 1 1.1 9.7-6.4-.7-1.5.7-.5 2.9 4.4-.7.5-1.1-1.3-7.9 5.3h2.5l8.7.8.6-.3-.8-1.5.7-.6 2.9 4.4-.7.5-1-1.2-9.7 6.5.6 1.4-.7.5zm-6.7-10.6c-.4-.4-.7-.8-1-1.1s-.4-.6-.7-.9c-.7-1.3-1.1-2.5-1.2-3.5 0-1 .5-1.7 1.5-2.3.8-.4 1.7-.6 2.5-.4.9.2 1.6.7 2.2 1.4-.6-1-.8-1.9-.6-2.8q.4-1.3 1.5-2c1.1-.8 2.3-1 3.3-.6s2 1.3 3 2.9c.3.6.7 1.2.8 1.7.2.6.4 1 .5 1.4q.2.5.1.6l-2.9 1.4-.5-.9L71 490q0-1.1-.9-2.4c-.4-.7-1-1.2-1.6-1.3-.6 0-1.4.2-2.3.6-.6.5-1.1 1-1.3 1.6-.2.7 0 1.5.5 2.4l.8 1.1-.9.6-.6-1c-.2-.4-.6-.7-1-1-.4-.4-.9-.5-1.4-.5q-.7-.1-1.6.4c-.8.5-1.1 1-1.3 1.6 0 .6.1 1.2.5 1.9.3.5.6.9 1 1.1.3.3.6.4.8.3l1.7-.6.6 1-2.3 1.6c-.2 0-.5-.3-1-.7m-7.3-14.4.5 1.5-.8.3-1.2-2.2c-.2-.4-.5-.9-.9-1.4s-.6-.8-.7-1.1c-.8-1.5-1.1-2.7-1.1-3.6.2-.9.7-1.6 1.6-2.1.8-.4 1.6-.6 2.4-.4.8.1 1.4.6 2 1.2-.6-1-.8-2-.6-2.9.3-.8.7-1.5 1.7-2 1.1-.6 2.2-.7 3.3-.2 1.1.4 2.2 1.5 3.2 3.4.2.3.4.8.6 1.2.4.8.6 1.4.8 1.5l1.1 2.1-.8.4-.9-1.2zm3-5.1-.4-1c-.4-.7-.9-1.2-1.6-1.4-.6-.2-1.3 0-2.1.3-.7.5-1.3.9-1.4 1.5-.2.6 0 1.3.5 2.3.2.3.5.8.7 1.2l.2.3 4.6-2.4s-.2-.3-.5-.8m5.7-4c-.6-1.1-1.3-1.8-2-2.1s-1.5-.2-2.3.3c-.9.5-1.4 1-1.5 1.7s0 1.4.6 2.4.9 1.7 1.1 2.1l4.9-2.7c-.1-.2-.4-.8-.8-1.7m-17.2-4.8-.9-1.9 9.6-9.6-.3-1.1.8-.4 2.2 4.4-.9.4-.8-1.3-2.2 1.9 2.4 4.9 2.8-.4-.5-1.6.9-.4 1.9 4-.9.4-.6-1zm2.2-2.4-1.4 1.2 1.7-.3 6.3-.9-2.1-4.3zm5.2-13.3c-.2 1-.7 2.1-1.4 2.9-.8.9-1.9 1.7-3.2 2.3-1.2.5-2.5.7-3.7.6q-1.8-.15-3.3-1.2c-.9-.7-1.6-1.7-2.2-2.8q-.5-1.4-.9-3.3l-.1-.7 3.1-1.2.5 1.2-2 1.4c0 .2 0 .6.1 1s.2 1 .5 1.6c.3.7.7 1.3 1.4 1.7.8.4 1.5.6 2.4.5 1 0 2.1-.2 3.2-.8 1-.4 2-.9 2.8-1.6s1.3-1.4 1.5-2.3c.3-.8.3-1.7-.1-2.5-.3-.6-.6-1-.8-1.3s-.5-.5-.8-.6l-2.1-.1-.3-1.1 2.6-.6c.2.2.4.6.7 1s.6.7.8 1c.2.4.5.9.8 1.5.5 1.1.7 2.3.5 3.4m-16.2-12.2c-1.1-.2-2.1-.7-2.8-1.3-.8-.6-1.4-1.5-1.7-2.5-.4-1.1-.5-2.2-.3-3.2.3-1.1.8-2 1.6-2.7.8-.8 1.7-1.3 3-1.8 1.5-.5 2.7-.7 3.9-.7 1.2.2 2.4.6 3.2 1.2s1.5 1.5 2 2.6q.6 1.65.3 3.3c-.2 1.1-.7 1.9-1.6 2.7-.8.8-1.8 1.5-3 2l1 2.8 5.1-1.9-.3-1.6.8-.3 1.8 4.9-.9.2-.7-1.4-10.9 4 .3 1.5-.9.3-1.7-4.7.8-.3.8 1.4 4.7-1.8-1-2.8c-1.2.3-2.5.4-3.5.1m-1.2-1.9q1.95.6 4.8-.6c1.7-.7 2.9-1.5 3.7-2.5q1.2-1.5.6-3.2c-.4-1.1-1.3-1.8-2.4-2.1-1.2-.3-2.8 0-4.7.7q-2.5 1-3.7 2.4c-.8 1-.9 2-.5 3.1.3 1.2 1.1 1.9 2.2 2.2m-.6-19.2c.5-.7 1.1-1.5 2-2.5.6-.7 1-1.2 1.3-1.6.3-.3.4-.6.4-.8v-.7l.9-.3.8 2.3c.1.2-.1.6-.4 1.1q-.6.8-1.8 1.9c-.9 1-1.6 1.8-2 2.4-.5.5-.6 1-.5 1.4l.3 1.1 5.1-1.6-.3-1.7.9-.3 1.6 4.9-.9.3-.7-1.4-11.1 3.4.2 1.5-.8.3-1.5-4.8.9-.3.6 1.4 5.1-1.6-.5-1.5-6.3-2 .3 1.6-.9.3-1.3-4.5.9-.3.6 1.3 6.5 2.3c-.1-.4.1-1 .6-1.6m3-8.9q-.6 1.6-1.9 2.6c-.9.7-2.1 1.3-3.4 1.6-1.4.4-2.7.4-3.8.2-1.2-.2-2.2-.8-3-1.5q-1.2-1.1-1.7-2.9c-.5-1.8-.3-3.4.7-4.8 1-1.3 2.4-2.2 4.5-2.8 1.4-.3 2.8-.3 3.9-.1 1.2.2 2.3.8 3.1 1.5q1.2 1.1 1.7 2.9c.3 1.2.3 2.3-.1 3.3m-10.7 2.2c1.2.4 2.8.3 4.8-.2 1.8-.4 3.1-1.2 4-2.1.8-.9 1.1-2 .8-3.1-.3-1.2-1.1-1.9-2.3-2.4-1.2-.4-2.9-.3-4.8.2-1.9.4-3.2 1.2-4.1 2.1q-1.2 1.3-.8 3.1c.5 1.1 1.3 2 2.4 2.4M22.4 401l.1 1.5-.8.2-.6-2.5c-.1-.4-.2-1-.4-1.5-.2-.6-.3-1-.4-1.4-.3-1.7-.3-2.9 0-3.7.4-.9 1.1-1.4 2.1-1.6.9-.2 1.6-.1 2.4.2.7.4 1.2 1 1.6 1.8-.3-1.2-.2-2.1.2-2.9s1.2-1.3 2.1-1.5c1.2-.3 2.4-.1 3.3.7 1 .6 1.7 2.1 2.1 4 .1.4.2.9.2 1.3.1.9.3 1.5.3 1.7l.6 2.4-.9.2-.5-1.5zm4.3-4.1-.3-.9c-.2-.9-.5-1.5-1.1-1.9-.5-.3-1.3-.4-2.2-.1-.9.1-1.5.5-1.7 1-.3.6-.4 1.4-.2 2.4.1.5.2.9.4 1.3l.1.4 5.1-1.1c0-.2-.1-.5-.1-1.1m6.4-2.3c-.3-1.2-.7-2-1.4-2.5q-.9-.7-2.3-.3c-1 .1-1.6.6-1.9 1.1s-.3 1.4-.1 2.5c.3 1.2.4 2.1.6 2.4l5.4-1.2c0-.3-.1-.9-.3-2M16 372.2l.9-.1.5 1.5 11.5-1.8v-1.7l.9-.2.9 5.3-1 .1-.4-1.5-11.5 1.8 1 5.9 11.6-1.7-.1-1.8 1-.1.7 5.2-.9.1-.5-1.4-11.5 1.8v1.6l-.9.2zm12.6-6.1c-.4.9-1.3 1.7-2.2 2.3-1 .6-2.2.9-3.7 1.1q-2.2.1-3.8-.5c-1.2-.4-2.1-1-2.8-1.9-.6-.9-1.1-1.9-1.2-3.1-.2-1.9.2-3.5 1.4-4.6 1.1-1.2 2.7-1.8 4.9-2.1q2.2-.1 3.8.5 1.7.6 2.9 1.9c.7.9 1.1 2 1.2 3.1.1 1.4-.1 2.4-.5 3.3m-10.8.6c1.1.6 2.6.7 4.7.6 1.9-.2 3.2-.7 4.3-1.5 1-.8 1.5-1.8 1.3-3.1-.1-1.1-.8-2-2-2.6-1.1-.6-2.7-.7-4.7-.6-1.9.2-3.3.7-4.3 1.5s-1.4 1.8-1.2 3.1c.1 1.2.8 2.1 1.9 2.6m4.9-15.4c1.7.2 3 .4 3.9.9.5.2.8.5 1.1.8.2.3.3.7.4 1.1 0 .6 0 1-.1 1.3l-1.5.2v-1.4c0-.2-.1-.5-.2-.6-.2-.1-.4-.3-.6-.5-1.5-.8-4.6-1.1-9.2-.8l-1.4.1-.1 2.2h-.9l-.7-10.8h.9l.4 1.7 11.6-.8.1-1.8h.9l.4 5.7h-.9l-.3-1.9-11.6.7.2 3.8h1.6c2.4 0 4.3 0 6 .1m-8.2-10.9-.2 1.5-.9.1-.2-9.5 2.9-.4v1.1l-1.7.5-.1 4.7 5.3-.1-.1-3.1-1.6-.2v-1.1h4.3v1l-1.6.3v3.1l5.5-.1-.3-5.3-2.4-.9.3-1.2 3.2.5.2 10.3-.9.1-.2-1.6zm-.2-15.6.1 3.2 3.9.7-.1 1.3-4.9-.5.2-11.6 5-.1v1.2l-3.9.6-.2 3.2 11.8.2.2-2.7.9.1-.1 7.1-1-.1-.1-2.5zm7.4-14.4v.9c.2.4.5.7 1.1 1.1q.8.5 2.2 1.1c.9.5 1.5.8 1.9 1.1.5.2.7.5.7.6l-.2 2.6-.9-.1-.1-.7c0-.2-.2-.4-.4-.7-.4-.2-.8-.5-1.5-1-.8-.4-1.4-.8-1.9-1.2-.5-.3-.8-.7-1.1-1.1-.3.9-.7 1.4-1.5 2-.7.4-1.5.6-2.5.5q-2.25-.15-3-1.5-.9-1.5-.6-3.9c0-.4.1-.7.1-1.3.1-.6.2-1.1.2-1.4l.2-2.7h.9l.1 1.6 11.6.8.3-1.8h.9l-.4 5.5h-.9V309l-5-.4zm-6.8-1.7c-.1.6-.2 1.1-.2 1.5 0 1 .1 1.7.6 2.3.4.5 1.1.8 2.2.9 1 0 1.7-.2 2.4-.6.6-.5.8-1.2.9-2.2s.2-1.6.1-2l-5.7-.4zm1-10.7-.2 3.2 3.8 1-.2 1.2-4.9-.9 1.2-11.5 5 .3-.1 1.2-3.9.2-.4 3.2 11.6 1.3.5-2.6.9.1-.8 7.1-.9-.1.1-2.4zM30 284c-.7.8-1.7 1.5-2.8 1.8s-2.4.4-3.8.1c-1.3-.2-2.6-.7-3.5-1.4-.9-.8-1.7-1.7-2.1-2.8-.4-1.2-.5-2.3-.2-3.6.1-.9.4-2.1.9-3.3l.3-.5 3.3.7-.3 1.2-2.4.1c-.2.1-.3.4-.6.9-.2.3-.3.9-.4 1.5q-.1 1.2.3 2.2c.4.7.9 1.3 1.8 1.8.8.5 1.8.8 3.1 1 1.2.2 2.2.2 3.2.1 1-.2 1.9-.5 2.6-1.1.6-.5 1-1.2 1.2-2.2q.1-1 .1-1.5-.1-.5-.4-1l-1.6-1.1.3-1.1 2.5.9c-.1.3 0 .6.1 1.1s0 1 .1 1.4 0 .9-.1 1.6c-.3 1.2-.8 2.3-1.6 3.2m-10.2-17.3.9.2-.2 1.7 9.2 2-2-2-5.3-6.6-.5-.1-.5 1.6-.9-.2 1-5 .9.2-.1 1.5 11.4 2.4.5-1.5.8.2-1 5.1-.9-.2.2-1.7-9.4-2 1.9 1.8 5.4 6.8.7.2.5-1.7.9.1-1.1 5.1-.8-.1.1-1.6-11.4-2.4-.5 1.4-.8-.2zm4.6-19.7 4.8 1-.4 1.3-3.7-.4-1.2 4 11.5 2.8 1-3.1.9.3-1.8 7-.9-.2.4-2.1-11.3-2.8-.7 1.9-.9-.3zm2-2.9-.7 1.4-.9-.2 1.5-4.9.9.2-.2 1.6 4.8 1.5 1.9-6.4-4.8-1.5-.7 1.4-.8-.2 1.4-4.8.9.2-.2 1.5 11.1 3.4.6-1.4.9.2-1.5 4.8-.9-.2.3-1.6-5.2-1.6-1.9 6.4 5.2 1.6.6-1.5.9.2-1.5 4.9-.9-.2.3-1.5zm4.5-18.4.7-2h13.7l.6-1 .8.3-1.7 4.6-.8-.3.3-1.5-2.9-.1-1.8 5.1 2.3 1.8.7-1.5.8.3-1.4 4.2-.8-.3.2-1.2zm3.2 0-1.7-.1 1.5 1 5 3.7 1.6-4.4zm9.7-9c1.5.9 2.6 1.7 3.2 2.5q.45.6.6 1.2c.1.4 0 .8-.1 1.2-.3.5-.5.9-.6 1.1l-1.4-.4c.1-.3.3-.8.5-1.3.1-.2.1-.5.1-.6-.1-.2-.2-.5-.4-.7-1-1.4-3.6-3-7.9-4.7l-1.3-.6-1.1 1.9-.8-.3 4-10 .9.3-.5 1.7 10.8 4.3.8-1.6.8.3-2.1 5.4-.8-.4.5-1.9-10.8-4.3-1.4 3.5 1.5.6c2.2 1.1 4 1.9 5.5 2.8m3-15.8c.7-1.3 1.4-2.2 2.5-2.7 1-.4 2-.4 3.2.2s2.1 1.5 2.4 2.7c.3 1.1.2 2.3-.5 3.7 0 .2-.2.4-.2.5-.2.2-.2.4-.4.7-.4.6-.6 1.1-.9 1.7l-1 2.2-.8-.4.5-1.5-10.6-5-.8 1.3-.8-.4 2.2-4.8.8.4-.6 1.8 3.9 1.9zm0-13 .8.5-.6 1.6 10.5 5 .9-1.5.8.4-2.3 5-.8-.4.5-1.7-10.4-5-1 1.5-.8-.4zm6.2 17.7c.2-.2.3-.6.5-.9.4-.9.4-1.9.1-2.6-.3-.8-.9-1.4-1.9-1.9-.9-.4-1.8-.5-2.5-.2s-1.2.8-1.7 1.7l-.8 1.8 5.7 2.6c.3-.1.5-.4.6-.5m-1.1-24.7-1 1.2-.8-.5 2.5-4.4.8.4-.6 1.5 4.5 2.4 3.2-5.7-4.5-2.5-.9 1.2-.8-.4 2.4-4.3.8.4-.5 1.4 10.2 5.7.9-1.2.8.4-2.4 4.4-.8-.4.6-1.4-4.8-2.7-3.2 5.8 4.8 2.6 1-1.3.8.4-2.5 4.5-.8-.4.5-1.4zm8.4-17 1.1-1.8 13.3 3 .8-.9.8.5-2.7 4.2-.8-.5.7-1.5-2.8-.7-2.9 4.6 1.9 2.2 1-1.2.8.5-2.4 3.7-.7-.5.5-1.1zm3.1.7-1.7-.5 1.2 1.3 4.2 4.7 2.5-4zm6.4-13.2-1.3 1.6-.8-.6 2.9-4 8.4 2.8 2.3.9-1.7-1.9-5.3-7 2.9-4 .8.5-1 1.8 10.3 5.5 1.2-1.2.7.5-3.2 4.4-.8-.5.9-1.5-7.4-4.2-3.2-1.8 1.8 2.2 6.1 8.3-.7 1-9-2.7-3.6-1.2 2.8 2.4 6.3 5.5 1.2-1.4.8.5-2.8 3.9-.8-.5.8-1.4z" style="mix-blend-mode:overlay"/><path d="m81.6 133.5 1.2-1.6 13 4.5.8-.8.7.6-3 3.9-.8-.6.9-1.3-2.7-1-3.4 4.3 1.6 2.3 1.1-1.1.8.6-2.8 3.4-.7-.6.6-1zm3 .9-1.6-.6 1.1 1.4 3.5 5.2 2.9-3.7zm4.5-8.1-1.2.9-.7-.6 1.6-1.9c.3-.3.6-.7.8-1l1.2-1.5c1.2-1.4 2.3-2.2 3.3-2.3.9-.2 2 .2 2.9 1.1q1.2.9 1.6 2.2c.3.9.2 1.7 0 2.6-.2.8-.7 1.7-1.4 2.5-.2.2-.4.6-.7.8q-.4.3-.4.5l3.1 2.7 1.8-1.8.7.6-4 4.6-.7-.6.9-1.3zm7.4 1.4c.7-.7 1-1.6.9-2.4s-.6-1.7-1.6-2.7c-.8-.7-1.6-1-2.3-.9-.8.1-1.4.6-2.2 1.5-.3.3-.5.6-.8 1-.2.2-.3.3-.3.4l5 4.3c.4-.1.8-.5 1.3-1.2m10.4-3.4c-1.1.4-2.2.3-3.3 0-1.1-.4-2.2-1-3.2-2s-1.7-2-2.1-3.2-.4-2.4-.2-3.5c.3-1.2.8-2.3 1.7-3.1.7-.8 1.5-1.5 2.8-2.3l.5-.3 2.3 2.4-.9.9-2.1-1.3c-.2.1-.5.2-.9.4s-.8.6-1.2 1c-.5.6-.8 1.3-.9 2-.1.8.1 1.5.4 2.5.4.8 1.1 1.7 2 2.5.8.8 1.8 1.4 2.7 1.9.9.4 1.7.5 2.6.5.8-.1 1.5-.5 2.2-1.2.5-.5.8-.9 1-1.2.1-.2.2-.6.2-.9l-.8-1.9.9-.7 1.7 2.1q-.3.3-.6 1.1c-.3.5-.5.8-.7 1.2q-.2.5-.9 1.2c-1.1 1-2.2 1.6-3.2 1.9M118 94.8l.6.7-1.2 1.4 6.3 7-.4-2.8-.3-8.4-.3-.4-1.4 1-.7-.7 3.9-3.5.7.7-1 1.2 7.8 8.7 1.2-.9.7.7-3.9 3.4-.6-.7 1.1-1.2-6.3-7.1.4 2.6.3 8.6.5.6 1.4-1.1.6.7-3.9 3.5-.6-.7 1-1.1-7.7-8.7-1.3.8-.6-.7zm9.7-8 .9-1.2c.3-.3.6-.5.8-.8 1.2-1 2.4-1.5 3.3-1.6 1-.2 1.8.3 2.5 1.1.6.7.9 1.5.8 2.4-.2.9-.5 1.6-1.1 2.4.9-.7 1.8-1.1 2.7-.9.9 0 1.6.4 2.2 1.2.9 1 1.2 2.1 1 3.2q-.3 1.6-2.4 3.3c-.5.5-1.1.8-1.6 1.1s-1 .5-1.3.6-.6.1-.6.2l-1.8-2.7.8-.6 1.9 1.5c.7-.1 1.5-.5 2.3-1.2.6-.5 1-1.2 1-1.8 0-.7-.3-1.4-1-2.2-.4-.6-1-1-1.7-1q-1.1-.2-2.4.9l-1 .8-.7-.8.8-.7c.3-.3.7-.7.9-1.2.2-.4.3-.9.3-1.4-.1-.6-.4-1-.7-1.6-.6-.6-1.1-1-1.7-.9-.6 0-1.2.3-1.9.7-.4.4-.7.7-.9 1.1-.3.3-.3.6-.3.8l.8 1.6-.9.7-2-2.1c.3-.2.6-.5 1-.9m13.2-9.3-1.4.8-.6-.8L141 76c.3-.2.7-.6 1.3-1 .4-.4.8-.7 1-.8q2.1-1.6 3.5-1.5c.9 0 1.7.4 2.3 1.2.5.8.7 1.5.7 2.3 0 .9-.4 1.6-1 2.2.9-.8 1.9-1 2.8-1 .9.1 1.7.6 2.2 1.3.7 1.1 1 2.1.7 3.3-.2 1.2-1.2 2.3-2.9 3.6-.3.3-.7.5-1.1.7-.8.5-1.2.9-1.4 1l-2.1 1.4-.5-.7 1.1-1zm5.4 2.2.9-.6c.7-.5 1.1-1.1 1.2-1.7 0-.6-.2-1.3-.7-2.1-.5-.7-1-1.1-1.6-1.1-.6-.1-1.4.2-2.2.8-.4.3-.7.5-1 .9l-.3.2 3.1 4.2c-.1-.1.2-.3.6-.6m4.8 5c1-.8 1.6-1.5 1.7-2.3q.2-1.2-.6-2.3c-.6-.8-1.2-1.2-1.8-1.3-.7-.1-1.4.2-2.2.9-1.1.8-1.7 1.2-2 1.4l3.3 4.6c.2-.1.7-.4 1.6-1m2.3-17.6 1.8-1.1 10.9 8.2 1.1-.5.5.7-4.1 2.8-.5-.8 1.1-1-2.2-1.8-4.6 3.1.8 2.7 1.4-.7.5.7-3.7 2.5-.5-.8.8-.8zm2.7 1.9-1.4-1.1.6 1.7 1.7 6.1 4-2.7zm13.9 3.2c-1.1 0-2.1-.4-3.2-1q-1.4-1-2.6-2.8-1.05-1.8-1.2-3.6c-.1-1.1.3-2.4.8-3.3.6-1.1 1.4-1.9 2.5-2.6.9-.5 1.9-.9 3.3-1.4l.5-.3 1.6 3-1.1.6-1.7-1.7c-.1-.1-.5 0-.9.1s-.9.4-1.4.7c-.7.4-1.2 1-1.5 1.6-.3.7-.4 1.5-.2 2.5.1.9.6 2 1.2 3 .7 1 1.3 1.9 2.1 2.5q1.1.9 2.4 1.2c.9.2 1.6 0 2.5-.4q.9-.6 1.1-1c.3-.2.5-.5.6-.8l-.3-2 1.1-.6.9 2.5c-.2.2-.5.4-.8.8s-.6.7-1 1c-.3.3-.8.6-1.2.9-1.2.8-2.4 1.1-3.5 1.1m9.8-17.8q0-1.65.9-3c.5-.9 1.2-1.5 2.2-2.1s2.1-.8 3.1-.7c1 0 2 .4 2.9 1.1q1.2 1.1 2.3 2.8 1.05 1.95 1.2 3.9c0 1.2-.1 2.3-.7 3.3-.6.9-1.3 1.7-2.2 2.2-1.1.6-2.2.9-3.3.8-1-.1-2-.5-2.9-1.1-.8-.6-1.7-1.6-2.3-2.8l-2.6 1.5L181 65l1.5-.6.4.8-4.6 2.5-.4-.8 1.3-.9-5.5-10.2-1.5.5-.5-.9 4.5-2.3.4.8-1.2.9 2.4 4.4 2.7-1.4c-.5-1.1-.8-2.2-.7-3.4m1.7-1.2c-.1 1.3.3 2.8 1.3 4.6.9 1.6 1.8 2.7 3 3.3 1.2.7 2.2.7 3.3.1 1.1-.5 1.7-1.5 1.7-2.7s-.4-2.7-1.3-4.5c-.9-1.6-1.9-2.8-2.9-3.3-1.1-.6-2.2-.7-3.2-.2-1.1.5-1.7 1.4-1.9 2.7m19-3.5q1.05.6 2.7 1.5c.8.6 1.3.9 1.8 1.1.4.2.6.3.8.3l.8-.2.4.9-2.1.9c-.3.2-.7.1-1.2-.2-.5-.2-1.2-.7-2.2-1.4-1-.8-1.9-1.3-2.5-1.7-.6-.3-1.1-.4-1.4-.3l-1.1.6 2.3 4.8 1.6-.5.4.8-4.7 2.2-.4-.8 1.3-.8-4.9-10.5-1.5.5-.3-.9 4.5-2.1.4.8-1.4.9 2.3 4.9 1.4-.8 1.2-6.5-1.6.5-.4-.8 4.2-2 .4.9-1.2.8-1.4 6.6c.4 0 1 .2 1.8.5m9.2 1.7c-1.1-.1-2-.7-2.8-1.5s-1.5-1.8-2-3.2c-.6-1.4-.9-2.6-.8-3.8s.4-2.2 1.1-3.2c.6-.9 1.5-1.6 2.6-2 1.8-.7 3.3-.7 4.8 0 1.4.6 2.6 2.1 3.4 4 .5 1.4.8 2.7.7 3.9-.2 1.2-.5 2.3-1.1 3.2-.7 1-1.6 1.7-2.6 2.1-1.2.6-2.2.7-3.3.5m-3.6-10.1c-.2 1.3.1 2.8.8 4.7.7 1.7 1.6 3 2.7 3.7 1 .8 2.1.8 3.2.3 1.1-.4 1.8-1.3 2-2.6.3-1.2 0-2.8-.8-4.7-.8-1.7-1.7-3-2.7-3.7-1.1-.6-2.1-.8-3.3-.3-1 .5-1.7 1.4-1.9 2.6m10.9-5.9-1.5.3-.2-.9 2.3-.9q.75-.15 1.5-.6c.6-.3 1-.5 1.3-.5 1.6-.6 2.8-.7 3.7-.5.8.2 1.5.8 1.8 1.8.3.8.4 1.6.1 2.4-.3.7-.8 1.4-1.5 1.8 1.1-.4 2.1-.5 2.9-.2.9.2 1.5.9 1.9 1.9.4 1.1.3 2.3-.2 3.3q-.9 1.6-3.8 2.7c-.4.1-.8.3-1.2.3-.9.3-1.5.6-1.7.6l-2.4.9-.3-.8 1.5-.7zm4.6 3.7 1-.4q1.2-.4 1.6-1.4c.3-.6.2-1.3-.1-2.2-.3-.8-.8-1.3-1.4-1.5-.5-.3-1.3-.2-2.3.1-.5.2-.9.4-1.3.6l-.4.2 1.9 4.9q.1-.1 1-.3m3.1 6c1.2-.4 1.9-1 2.3-1.7s.4-1.5.1-2.5c-.4-.9-.9-1.4-1.4-1.7q-1-.4-2.5.3c-1.2.4-1.9.7-2.3.8l2 5.2c.3.2.9 0 1.8-.4M244.6 25l.2.9-1.4.8 3.4 11.1 1.7-.4.3.9-5 1.5-.3-.9 1.4-.6-3.4-11.2-5.8 1.7 3.4 11.2 1.8-.4.2.9-5 1.5-.2-.9 1.4-.6-3.4-11.1-1.6.3-.3-.9zm7.8 11.6q-1.6-.6-2.6-1.9t-1.5-3.5c-.3-1.4-.4-2.6-.2-3.9.2-1.1.8-2.1 1.5-2.9q1.1-1.3 2.9-1.7c1.9-.5 3.5-.3 4.8.7 1.3.9 2.2 2.4 2.8 4.6.3 1.4.4 2.7.2 3.9-.3 1.3-.8 2.2-1.7 3q-1.2 1.2-2.9 1.7c-1.3.4-2.3.4-3.3 0m-2.2-10.7c-.4 1.3-.3 2.8.2 4.8.4 1.8 1.2 3.1 2.1 4 .9.8 2 1.2 3.1.8 1.2-.3 1.9-1 2.4-2.3.4-1.2.3-2.8-.2-4.8-.4-1.9-1.2-3.2-2-4q-1.4-1.3-3.2-.9c-1.1.5-2 1.3-2.4 2.4m16.1 2.8c.1 1.8 0 3.1-.4 4.1-.1.5-.4.9-.7 1.1-.3.3-.6.5-1.1.6s-1 .1-1.2.1l-.4-1.4c.3 0 .7-.1 1.3-.2.3-.1.5-.1.6-.3.2-.2.3-.3.4-.6.6-1.7.4-4.7-.5-9.2l-.3-1.4-2.2.2-.2-.9 10.5-2.1.2.8-1.7.6 2.4 11.4 1.9-.2.1.9-5.6 1.1-.1-.8 1.9-.6-2.4-11.5-3.6.8.3 1.6c.4 2.2.6 4.3.8 5.9m9.6-9.6h-1.5l-.2-1 9.4-1.5.8 2.8-1.1.1-.8-1.7-4.6.6.9 5.2 3.1-.6v-1.5l1-.1.7 4.2-1 .2-.5-1.6-3.1.5.9 5.5 5.1-1 .6-2.5 1.2.2v3.2l-10.2 1.7-.2-.9 1.5-.4zm15.4-2.4-3.2.5-.1 3.9-1.3.2-.3-5 11.6-1.4.8 4.9-1.1.1-1.1-3.8-3.2.2 1.4 11.7 2.7-.1v.9l-7 .9-.1-.9 2.4-.5zm15.3 5.3-.9.1q-.45.3-.9 1.2c-.2.6-.5 1.3-.8 2.3-.3.9-.5 1.6-.7 2-.3.5-.4.7-.7.8l-2.5.2v-.9l.7-.2c.2-.1.3-.2.5-.6q.3-.5.8-1.6c.3-.9.7-1.6.9-2.1.4-.5.7-1 1-1.2q-1.3-.2-2.1-1.1-.8-1-.9-2.4c-.1-1.5.3-2.6 1.1-3.2.9-.7 2.1-1.1 3.7-1.1.4-.1.9-.1 1.5-.1h1.3l2.7-.2.1.9-1.5.3.9 11.5h1.7v1l-5.5.4v-.9l1.8-.3-.4-5zm.8-7.1c-.6 0-1.1.1-1.6 0-.9.1-1.7.4-2.1.8q-.8.7-.6 2.3c0 1 .4 1.7.9 2.3q.9.7 2.3.6c1-.1 1.7-.2 2-.2l-.4-5.7zm10.7-.4-3.2.2-.6 4h-1.2l.1-5 11.6-.5.4 5h-1.1l-.8-3.8H320l.4 11.8 2.7.1v.9l-7.1.3v-.9l2.4-.3zm15.8 12c-.9-.7-1.6-1.5-2.2-2.5-.5-1.1-.7-2.4-.7-3.8q.1-2.1 1-3.7t2.5-2.4c1-.5 2.2-.8 3.5-.8.9 0 2.1.2 3.4.5l.6.2-.3 3.3h-1.3l-.3-2.3c-.2-.2-.5-.3-.9-.5-.5-.1-1-.1-1.6-.2-.8 0-1.5.2-2.1.7-.7.4-1.1 1.1-1.6 1.9-.3.9-.6 1.9-.6 3.2q0 1.8.4 3.1c.2.9.7 1.8 1.4 2.4.6.5 1.4.8 2.3.9.7 0 1.1 0 1.5-.1s.7-.2 1-.5l.8-1.8 1.1.2-.5 2.6c-.3.1-.6.2-1.1.2-.5.1-.9.3-1.3.3-.5.1-1 0-1.6.1-1.3-.1-2.4-.4-3.4-1m15.6-12.7v1l-1.9.1-.7 9.4 1.7-2.2 5.9-6.2v-.5l-1.6-.3v-1l5.1.4v.9l-1.5.1-.8 11.6 1.6.3v.9l-5.2-.3v-.9l1.6-.1.7-9.5-1.6 2-6 6.3v.7l1.7.2v.9l-5.3-.4v-.9l1.6-.1.8-11.6-1.5-.3v-.9zm20.3 1.9-.4 4.9-1.3-.1-.1-3.8-4.1-.6-1.3 11.7 3.2.6-.1.9-7.3-.9.1-.8h2l1.3-11.5-1.9-.5.1-.9zm3.2 1.6-1.4-.5.1-.9 5 .7-.1.9h-1.7l-.7 5 6.5 1 .7-5-1.5-.5.1-.9 5 .8-.1.8h-1.5l-1.8 11.5 1.4.4-.1.9-5-.8.1-.9h1.6l.8-5.3-6.5-1.1-.8 5.4 1.6.5-.1.8-5.1-.7.1-.9h1.6zm18.8 2 2 .4 1.9 13.5 1.1.4-.2.9-4.8-1 .2-.8 1.6.1-.4-3-5.3-1.1-1.4 2.6 1.5.5-.1.9-4.4-.9.2-.9 1.2.1zm.6 3.1-.2-1.7-.7 1.5-3 5.5 4.6 1zm10.1 8.3c-.7 1.5-1.4 2.8-2.1 3.5-.4.4-.8.6-1.1.7q-.5.2-1.2 0c-.6-.1-1.1-.3-1.3-.4l.2-1.5c.2.1.7.2 1.3.3.2.1.4 0 .6 0s.4-.2.6-.4c1.3-1.2 2.5-4.1 3.6-8.6l.4-1.4-2-.5.3-1 10.5 2.6-.3 1-1.8-.2-2.8 11.3 1.8.7-.2.8-5.7-1.4.3-.8 1.9.3 2.8-11.3-3.7-.9-.4 1.6c-.5 2-1.1 4-1.7 5.6m16 .8c1.4.5 2.5 1.2 3.1 2.1.5.8.6 2 .2 3.2q-.7 2.1-2.3 2.7c-1.1.5-2.3.5-3.8.1q-.2 0-.5-.1c-.2-.1-.4-.1-.7-.3-.6-.3-1.3-.4-1.8-.7l-2.5-.7.3-.9 1.5.3 3.4-11.1-1.3-.7.2-.8 5.1 1.5-.3.9-1.8-.3-1.3 4.1zm-3.9 6.8c.2 0 .6.2 1 .3 1 .3 1.8.3 2.5-.1.8-.4 1.3-1.1 1.5-2.2.3-1 .3-1.7-.1-2.5q-.5-.9-2.1-1.4l-1.8-.5-1.8 6c.4.1.6.3.8.4m16.7-8.5-.3.8-1.7-.2-3.4 11.1 1.6.7-.2.9-5.3-1.6.3-.9 1.7.4 3.4-11.2-1.7-.7.3-.8zm7.7 4-1.3-.8.3-.8 4.7 1.7-.3.9-1.5-.3-1.8 4.7 6.2 2.3 1.8-4.7-1.4-.7.4-.9 4.7 1.8-.3.8-1.5-.2-4.1 10.9 1.3.6-.3.9-4.7-1.8.3-.8 1.5.4 2-5.1-6.2-2.4-2 5.1 1.4.8-.3.8-4.8-1.9.4-.8 1.5.4zm18 5.8 1.9.8-1 13.7 1 .7-.4.8-4.5-2 .3-.9 1.5.5.4-2.9-5-2.2-1.9 2.2 1.4.7-.3.9-4.1-1.8.3-.9 1.1.3zm0 3.3.2-1.7-1.1 1.4-4.1 4.7 4.4 1.8zm13.7 4.4-1.7-1.1.4-.8 4.4 2.3-1.5 8.6-.5 2.4 1.6-1.8 6.1-6.3 4.4 2.3-.4.8-2-.7-4 10.9 1.4 1-.5.8-4.7-2.5.4-.8 1.6.6 3.1-7.8 1.3-3.4-1.9 2-7.3 7.2-1-.5 1.5-9.4.6-3.6-1.9 3-4.6 7.2 1.6 1-.4.8-4.3-2.3.4-.8 1.5.6z" style="mix-blend-mode:overlay"/><path d="m490.1 56.4 1.7 1.1-2.5 13.4.9.7-.4.8-4.3-2.4.5-.8 1.4.5.7-2.7-4.7-2.8-2.1 2 1.2.9-.4.8-3.8-2.2.5-.8 1.1.4zm-.5 3.1.5-1.6-1.3 1.2-4.7 4.2 4.2 2.5zm8.8 3.3-1.1-1 .5-.8 2.1 1.4c.4.2.8.5 1.1.7.6.4 1.2.6 1.7 1 1.5 1 2.4 1.9 2.7 2.9.2 1 0 2.1-.6 3.1-.6.9-1.2 1.4-2.1 1.8-.8.4-1.6.5-2.5.4-.9-.2-1.8-.5-2.7-1.1-.3-.2-.6-.3-.9-.6-.4-.2-.5-.4-.6-.5l-2.3 3.5 2.1 1.5-.5.8-5.2-3.3.5-.8 1.5.7zm-.3 7.7c.8.5 1.6.7 2.5.5.8-.1 1.6-.7 2.3-2 .6-.8.8-1.7.6-2.4-.2-.6-.8-1.3-1.7-2-.4-.2-.7-.3-1.2-.6l-.4-.2-3.7 5.6c.4.2.8.6 1.6 1.1m4.7 9.7c-.5-1.1-.6-2.2-.4-3.3s.8-2.3 1.6-3.5c.8-1.1 1.7-2 2.8-2.5 1.1-.6 2.2-.8 3.4-.7 1.2.2 2.3.6 3.3 1.3.8.6 1.7 1.4 2.6 2.4l.5.4-2.1 2.6-1.1-.7 1-2.2c0-.2-.3-.5-.5-.8-.2-.4-.7-.7-1.2-1.1-.7-.5-1.4-.6-2.2-.7-.8 0-1.6.3-2.3.8-.8.6-1.6 1.4-2.3 2.3-.6.9-1.1 1.9-1.5 2.9-.2.9-.3 1.8-.1 2.7.3.9.7 1.5 1.5 2 .5.4 1 .7 1.3.8.4.1.7.1 1 .1l1.7-1 .9.8-1.9 1.9c-.3-.1-.7-.2-1.1-.5-.5-.1-.8-.3-1.3-.4-.4-.2-.8-.4-1.3-.8-1-.8-1.9-1.8-2.3-2.8m27.2 3.9-.6.8-1.5-1.1-6 7.3 2.7-.8 8.3-1.6.3-.5-1.1-1.2.6-.7 4 3.3-.6.7-1.3-.7-7.4 9 1.1 1.1-.6.7-4-3.4.6-.6 1.4.9 6-7.4-2.4.8-8.5 1.7-.4.5 1.2 1.2-.6.7-4.1-3.4.6-.6 1.3.8 7.4-9-1.1-1.1.6-.7zm9.5 8.4c.6.2.9.5 1.2.7.4.2.7.5 1 .7 1.1 1 1.9 2 2.1 3q.4 1.5-.7 2.5c-.7.8-1.4 1.2-2.3 1.1-.8.1-1.7-.1-2.5-.6.8.8 1.3 1.7 1.4 2.5s-.2 1.7-.8 2.3c-.9 1-2 1.5-3.1 1.4-1.1.1-2.2-.6-3.6-1.8-.6-.4-1-.9-1.4-1.4s-.6-.9-.8-1.2c-.1-.2-.3-.5-.3-.6l2.4-2.2.6.6-1.1 2.1c.2.7.7 1.4 1.4 2.1.7.5 1.2.8 2 .7.6-.1 1.3-.5 1.9-1.2.6-.6.8-1.2.9-1.9 0-.7-.5-1.5-1.3-2.2l-1-.9.7-.7.9.7c.4.3.8.7 1.3.8q.75.15 1.5 0c.6-.2.9-.5 1.4-1 .6-.6.8-1.2.7-1.8s-.4-1.2-1.1-1.7c-.4-.4-.7-.6-1.2-.9-.3-.2-.7-.1-.9-.1l-1.4 1-.9-.7 1.8-2.3c.3.4.7.6 1.2 1m11.2 11.6-.9-1.3.6-.6 1.8 1.8 1.2 1.2q.8.6 1 .8c1.2 1.3 2 2.3 2 3.2.2.9-.1 1.7-.8 2.4s-1.4 1-2.2 1.1c-.7.1-1.6-.1-2.3-.6.9.8 1.3 1.7 1.4 2.6s-.2 1.6-.9 2.4c-.9.9-2 1.3-3.1 1.2q-1.8-.2-4-2.3c-.3-.3-.6-.7-.9-.9q-.9-1.1-1.2-1.3l-1.7-1.8.7-.6 1.2.9zm-5.5 11.2c.9.8 1.7 1.4 2.5 1.4s1.5-.3 2.2-1c.7-.6 1-1.3.9-2q0-.9-1.2-2.1-1.4-1.3-1.7-1.7l-3.9 3.9c0 .3.5.7 1.2 1.5m4.2-5.5.8.7c.6.6 1.2 1 1.8.9.7 0 1.4-.3 1.9-1 .6-.7 1-1.2.9-1.8 0-.6-.4-1.3-1.1-2-.4-.3-.7-.6-1.1-.9l-.4-.3-3.6 3.7c.2 0 .4.3.8.7m13.6 5 1.4 1.5-6.4 12.1.7 1-.7.6-3.3-3.6.6-.7 1.2 1.1 1.5-2.6-3.7-4-2.7 1.2 1 1.3-.7.6-3-3.3.7-.6.9.8zm-1.5 2.8 1-1.5-1.6.8-5.7 2.7 3.2 3.5zm-1.1 14.4c-.2-1.2 0-2.3.5-3.4.5-1 1.3-2.1 2.4-3s2.2-1.4 3.4-1.7 2.4-.2 3.5.2c1.2.4 2.1 1.1 2.9 2.1.7.8 1.3 1.8 1.9 3l.3.5-2.7 2.1-.8-.9 1.5-2c0-.2 0-.5-.2-.9-.2-.3-.5-.8-.9-1.2-.6-.7-1.2-1-1.9-1.2-.8-.3-1.6-.2-2.5.1s-1.9.8-2.8 1.6-1.6 1.6-2.2 2.4c-.5.9-.7 1.7-.7 2.5q-.1 1.2.9 2.4c.4.5.8.8 1.1 1 .4.2.6.4.9.4l1.9-.6.7.9-2.3 1.5c-.2-.2-.5-.5-1-.8-.4-.2-.7-.5-1.1-.8-.3-.3-.7-.6-1.1-1.1-1-.9-1.5-2-1.7-3.1m19 6.9c1.2-.1 2.1.1 3.1.4.9.4 1.7 1.1 2.3 1.9.8 1 1.1 1.9 1.3 2.9 0 1.1-.2 2.1-.7 3-.6 1-1.4 1.9-2.5 2.7-1.1.9-2.4 1.5-3.6 1.8s-2.3.2-3.4-.2-1.9-1-2.6-1.9q-1.1-1.5-1.3-3.1c-.1-1.1.1-2 .6-3 .6-1 1.3-1.9 2.4-2.7l-1.8-2.4-4.4 3.3.9 1.4-.8.5-3.1-4.1.8-.5 1.1 1.1 9.2-7-.7-1.3.7-.6 3 4-.7.6-1.2-1.1-3.9 3 1.8 2.4c1.3-.6 2.4-.9 3.5-1.1m1.6 1.6c-1.2 0-2.7.7-4.4 1.9-1.4 1.2-2.4 2.2-2.8 3.5-.4 1.2-.3 2.2.4 3.2.8.9 1.7 1.4 3 1.2 1.2-.1 2.6-.8 4.3-2 1.4-1.1 2.4-2.2 2.8-3.4q.7-1.8-.3-3.2c-.7-.8-1.7-1.3-3-1.2m6.4 18.2c-.2.7-.7 1.7-1.2 2.9-.4.8-.6 1.5-.8 1.8-.1.4-.2.8-.2.9l.3.7-.8.5-1.3-1.9c-.1-.2-.1-.6.1-1.2.3-.5.6-1.4 1.1-2.4.6-1.1.9-2 1.2-2.7.3-.6.2-1.1.1-1.5l-.7-1-4.3 3 .7 1.5-.8.6-2.8-4.3.7-.5 1 1.2 9.6-6.5-.6-1.4.7-.5 2.8 4.1-.7.5-1-1.2-4.5 3 .8 1.4 6.6.1-.7-1.4.7-.5 2.6 3.8-.8.5-1-1.1-6.8-.3c.2.5.2 1.1 0 1.9m-.4 9.3c.1-1 .3-2 1.1-2.9.7-1 1.6-1.8 2.8-2.5 1.2-.8 2.5-1.2 3.6-1.3 1.3-.1 2.3.1 3.3.6 1 .4 1.8 1.2 2.5 2.2.9 1.7 1.2 3.2.7 4.8q-.7 2.3-3.5 4c-1.2.8-2.4 1.2-3.7 1.3s-2.3-.1-3.4-.6c-1-.4-1.8-1.3-2.5-2.3-.7-1.2-.9-2.2-.9-3.3m9.5-5.2c-1.2 0-2.7.5-4.5 1.6-1.5 1-2.6 2-3.2 3.2s-.4 2.2.2 3.3c.6 1 1.6 1.6 2.8 1.6 1.3 0 2.8-.5 4.5-1.6 1.6-1 2.7-2 3.2-3.2.5-1.1.5-2.2-.1-3.3-.7-1-1.6-1.5-2.9-1.6m7.5 10.1-.5-1.5.8-.5 1.3 2.2c.2.4.5.9.9 1.4.3.5.5.8.7 1.1.8 1.5 1.2 2.6 1 3.6-.1 1-.6 1.6-1.5 2.2-.7.4-1.5.6-2.3.5-.8-.2-1.5-.5-2.1-1.3.6 1.1.8 1.9.6 2.9-.1.9-.7 1.5-1.5 2-1.1.7-2.3.8-3.4.4s-2.1-1.5-3.2-3.3c-.2-.4-.4-.9-.6-1.2-.5-.9-.7-1.4-.8-1.6l-1.2-2.1.8-.4.9 1.2zm-8.5 9.2c.6 1.1 1.3 1.7 2 1.9.8.2 1.5.1 2.4-.4.8-.4 1.3-1 1.4-1.6q.3-.9-.6-2.4c-.6-1.1-1-1.8-1.1-2l-4.9 2.6c.1.4.3 1 .8 1.9m5.6-4.1.4.9c.5.7 1.1 1.2 1.6 1.3.7.2 1.3.1 2.2-.4q1.1-.6 1.3-1.5.2-.8-.6-2.3c-.2-.3-.5-.7-.7-1.2l-.2-.4-4.6 2.6c.2.2.3.5.6 1m17.5 20.4-.8.4-.9-1.4-10.4 5.1.6 1.7-.9.4-2.2-4.8.8-.4.8 1.3 10.5-5-2.6-5.4-10.5 5.1.5 1.7-.8.4-2.3-4.7.8-.4.8 1.3 10.5-5.1-.5-1.6.8-.4zm-10.3 9.6c.2-1.1.7-2 1.4-2.8.9-.8 1.9-1.6 3.2-2.1 1.2-.6 2.5-.9 3.7-.8 1.2.2 2.2.4 3.2 1.1.9.7 1.6 1.6 2 2.6.8 1.8.9 3.4.1 4.8-.7 1.4-2.1 2.6-4.1 3.4-1.4.5-2.6.8-3.8.7s-2.4-.4-3.3-1.1c-1-.7-1.6-1.6-2.2-2.6-.3-1.1-.5-2.3-.2-3.2m10.1-3.7c-1.2-.3-2.7 0-4.7.8-1.7.8-3 1.7-3.7 2.7-.6 1.1-.8 2.1-.3 3.3.5 1.1 1.3 1.8 2.6 2s2.9 0 4.7-.9c1.7-.7 3-1.6 3.7-2.6.7-1.1.8-2.2.4-3.3-.6-1.2-1.4-1.8-2.7-2m-.2 16.1c-1.7.3-3.1.5-4.1.3-.4-.1-.9-.2-1.2-.5s-.5-.6-.7-1c-.3-.6-.3-1-.4-1.3l1.4-.7c.1.3.2.8.5 1.4 0 .2.2.3.4.5q.15.15.6.3c1.7.3 4.8-.3 9-1.9l1.3-.6-.5-2.1.9-.3 3.8 10.1-.9.3-.8-1.5-10.9 4.1.4 1.7-.8.3-2.1-5.4.9-.3.9 1.8 10.9-4.1-1.3-3.5-1.6.6c-2.1.9-4 1.4-5.7 1.8m11.1 8.1-.3-1.6.9-.2 2.9 9-2.6 1.1-.4-1 1.6-1.1-1.4-4.4-5 1.6 1 2.9 1.6-.2.4 1-4.2 1.4-.3-1 1.4-.8-.9-3-5.3 1.8 1.9 4.9 2.6.2v1.2l-3.3.4-3.3-9.8.9-.3.6 1.4zm4.8 14.8-1.1-3-4 .4-.2-1.2 4.8-1 3.2 11.2-4.8 1.6-.3-1.1 3.6-1.7-.8-3.2-11.3 3.2.5 2.6-.9.3-1.9-6.9.9-.2.8 2.2zm-3 15.9-.2-.9c-.2-.2-.7-.4-1.3-.5-.7-.2-1.5-.3-2.5-.5-.9-.1-1.6-.3-2.1-.4q-.7-.2-.8-.6l-.5-2.5.9-.1.3.7c0 .1.3.3.7.5.3.1.9.2 1.6.5q1.3.4 2.3.6c.6.3 1 .5 1.3.8.1-.9.4-1.7.8-2.2q.9-1 2.2-1.3c1.4-.3 2.6-.1 3.3.6.8.7 1.4 1.9 1.7 3.5.1.3.2.9.3 1.4 0 .6.1 1 .2 1.4l.6 2.6-.9.3-.6-1.5-11.3 2.6.3 1.7-.9.1-1.3-5.3.9-.2.6 1.7 4.7-1.2zm7-.2c0-.6-.1-1.1-.2-1.5-.2-1-.6-1.6-1.1-2.1-.5-.4-1.3-.4-2.2-.2-1 .3-1.8.7-2.1 1.3q-.6.9-.3 2.4c.3 1 .4 1.6.6 1.9l5.5-1.4zm2.2 10.4-.7-3.1-4 .1-.2-1.2 5-.6 2.2 11.4-4.9 1.2-.2-1.2 3.7-1.4-.4-3.1-11.6 2.2.3 2.6-.9.2-1.4-7 .9-.2.7 2.3zm-9.4 17.5c.5-1 1.3-2 2.2-2.5 1-.7 2.2-1 3.6-1.3 1.4-.1 2.7-.1 3.8.4 1.1.4 2 1.2 2.8 2.1s1.2 2 1.4 3.3c.1 1 .1 2.1-.1 3.5v.6l-3.3.2-.2-1.3 2.3-.8c.1-.2.2-.5.2-1 0-.4.1-1-.1-1.5-.1-.7-.4-1.4-1-2-.5-.6-1.3-1-2.2-1.2-1-.3-2-.2-3.2-.2-1.2.2-2.2.5-3.1.9-1 .5-1.6 1-2.1 1.7s-.6 1.6-.5 2.4c.1.7.2 1.2.4 1.6.1.3.3.6.5.8l1.9.5v1.3l-2.7-.2c0-.2-.1-.6-.4-1.1-.2-.4-.4-.8-.5-1.2-.1-.5-.3-.9-.3-1.5 0-1.3.1-2.5.6-3.5m14.9 13.5-.9.1-.4-1.9-9.4.9 2.4 1.3 7.1 4.8.5-.1v-1.7l1-.1.4 5.2h-.9l-.3-1.4-11.6 1.1v1.6l-1 .1-.4-5.3h.9l.4 1.6 9.5-.8-2.3-1.2-7.2-4.9h-.6l-.1 1.7-.9.1-.4-5.2.9-.1.3 1.5 11.6-1 .1-1.5.9-.1zm1.3 20.3-4.9.4v-1.3l3.7-.7V315l-11.7.5-.1 3.3h-.9l-.4-7.3.9-.1.3 2 11.6-.5.1-2 .9-.1zM646 324l.2-1.5.9.1v5.1l-.9-.1-.2-1.6h-5v6.6h5l.2-1.4h.9v5h-1l-.2-1.5h-11.6l-.2 1.5h-.9v-5h.9l.2 1.6h5.4l.1-6.6h-5.4l-.3 1.5h-.9v-5.1h.9l.2 1.5zm1.1 18.9-.1 2.1-13 3.9-.2 1.2-.9-.1.2-4.9h.9l.1 1.6 2.8-.8.2-5.4-2.6-1.1-.2 1.6h-1l.2-4.5.9.1.1 1.1zm-3 1.1 1.6-.3-1.7-.6-5.9-2.2-.3 4.7zm-6.7 11.3c-1.7-.4-2.9-.9-3.7-1.5-.4-.3-.8-.6-.9-.9-.2-.4-.2-.8-.2-1.2.1-.6.1-1 .3-1.3h1.5c-.1.3-.1.8-.2 1.4q-.1.3.1.6c.1.3.3.4.5.6 1.4 1.1 4.4 1.8 8.9 2.2l1.5.1.4-2.2.9.1-1 10.7h-.9v-1.8l-11.5-1-.4 1.8h-.9l.5-5.8h.9v2l11.5 1 .3-3.8-1.7-.1c-2.3-.2-4.2-.5-5.9-.9m1.7 15.9c-.2 1.5-.7 2.7-1.6 3.4-.8.7-1.9.9-3.2.8-1.4-.2-2.4-.9-3.1-1.9-.6-1-.8-2.2-.6-3.7.1-.2.1-.4.1-.6-.1-.2.1-.4.2-.7.1-.6.2-1.3.4-1.9l.3-2.6.9.2v1.6l11.6 1.7.5-1.5.9.1-.9 5.3-.8-.1-.1-1.9-4.4-.6zm-7.2-2.7c0 .2-.1.6-.1 1-.2 1.1 0 1.8.5 2.5.5.6 1.3 1 2.4 1.1.9.2 1.8 0 2.3-.5.6-.4.9-1.1 1.1-2.2l.3-1.9-6.3-.8q-.1.5-.2.8m11 15.1-.9-.2v-1.7l-11.5-1.6-.4 1.7-.9-.2.7-5.4.9.2v1.7l11.4 1.6.5-1.7.9.2zm-2.9 8.2.6-1.3.8.2-1.1 5-.9-.2.1-1.6-4.9-1.1-1.4 6.4 4.9 1.1.6-1.4.9.3-1.2 4.9-.8-.3.1-1.5-11.4-2.4-.5 1.4-.8-.2 1.1-4.9.8.2v1.5l5.3 1.1 1.4-6.4-5.3-1.1-.6 1.6-.8-.3 1.1-5 .9.3-.1 1.5zm-3 18.6-.6 2-13.6 1.2-.5 1.1-.8-.2 1.2-4.8.8.2-.2 1.6 2.9-.1 1.3-5.3-2.5-1.4-.6 1.4-.8-.2 1-4.3.9.2-.1 1.2zm-3.2.4 1.8-.1-1.5-.8-5.4-3.2-1.1 4.6zm-2.4 14.5.9-1.9.9.3-1.6 4.7-8.8-.2-2.4-.1 2.1 1.2 7.2 5.2-1.6 4.7-.8-.3.4-2.1-11.5-2.2-.7 1.4-.8-.3 1.7-5.2.8.4-.3 1.6 8.2 1.9 3.6.8-2.3-1.7-8.3-6.1.4-1.1h9.5l3.7.1-3.3-1.5-7.8-3.4-.7 1.7-.9-.3 1.6-4.6.8.3-.3 1.6z" style="mix-blend-mode:overlay"/><path d="m625.5 445.9-.7 2-13.6-.5-.6.9-.8-.3 1.8-4.6.8.3-.4 1.6 2.9.1 2-5-2.3-1.9-.7 1.5-.9-.4 1.6-4.1.9.3-.2 1.2zm-3.3-.1 1.7.2-1.4-1-4.8-4-1.7 4.5zm-1.8 9.2.9-1.2.8.3-1 2.2c-.3.5-.4.9-.5 1.2-.3.7-.5 1.2-.7 1.8-.8 1.6-1.5 2.6-2.5 3.1-.9.4-1.9.4-3.2-.2-.9-.4-1.6-.9-2.1-1.6-.5-.8-.7-1.6-.8-2.5 0-.9.2-1.9.7-2.8.2-.3.2-.6.4-1 .2-.3.3-.5.4-.6l-3.7-1.6-1.2 2.2-.9-.3 2.5-5.5.9.3-.5 1.5zm-7.6.8c-.4.9-.5 1.7-.2 2.6s1 1.5 2.3 2.1c1 .4 1.8.4 2.4.2.7-.3 1.2-1 1.7-2 .2-.4.3-.7.4-1.2q.1-.4.1-.6l-6.1-2.6c0 .2-.3.8-.6 1.5m-8.8 6.3c.9-.6 2-.9 3.1-.9q1.9 0 3.8 1c1.2.6 2.2 1.4 2.9 2.4s1 2.1 1.1 3.2c.1 1.2-.1 2.4-.7 3.5-.4.9-1.1 1.9-1.9 3l-.3.5-3-1.6.5-1.1 2.4.6c.2 0 .5-.2.8-.6.3-.3.5-.8.8-1.3.4-.7.5-1.4.3-2.2-.1-.8-.5-1.5-1.1-2.3-.6-.7-1.5-1.3-2.6-1.9-1.1-.5-2.2-.9-3.1-1-1-.2-1.9-.1-2.8.3-.7.3-1.3.8-1.8 1.7-.2.7-.4 1.1-.5 1.5s0 .7.1 1l1.3 1.5-.6 1-2.3-1.7q.1-.4.3-1.1c.2-.5.2-.9.3-1.4.1-.3.4-.9.6-1.4q.9-1.8 2.4-2.7m.3 27.5-.7-.6.7-1.7-8.1-4.7 1.2 2.4 2.9 8.1.5.2 1.1-1.4.7.6-2.6 4.4-.7-.6.5-1.3-10-5.9-1 1.3-.8-.4 2.7-4.5.8.4-.8 1.5 8.2 4.9-1.2-2.3-2.9-8.1-.6-.4-1.1 1.5-.8-.5 2.6-4.5.8.4-.6 1.4 10.1 5.9.9-1.2.8.5zm-6.7 10.6c-.2.5-.4 1-.6 1.4-.2.3-.4.7-.5.9-.9 1.3-1.7 2.2-2.6 2.6-1 .3-1.9.3-2.7-.2-.9-.6-1.3-1.3-1.5-2.2-.2-.8-.1-1.6.3-2.5-.7.9-1.5 1.5-2.3 1.7-.9.2-1.7.1-2.4-.5-1.2-.7-1.9-1.6-2-2.7s.3-2.4 1.3-3.9c.4-.7.8-1.2 1.2-1.6.5-.4.8-.7 1.1-1 .3-.2.4-.4.5-.4l2.5 2-.5.8-2.3-.9c-.6.3-1.1.9-1.8 1.9-.5.6-.6 1.3-.4 2 .1.6.7 1.2 1.5 1.7.6.4 1.3.6 2.1.5.7-.1 1.4-.7 1.9-1.6l.7-1.1.9.5-.6.9c-.3.4-.4.9-.5 1.4s0 1 .2 1.5c.2.4.6.8 1.1 1.2.7.5 1.4.6 1.9.4.6-.2 1.1-.6 1.6-1.3.3-.4.5-.9.5-1.3q.2-.6 0-.9l-1.3-1.3.6-.9 2.5 1.4c0 .6-.2.9-.4 1.5m-9.8 12.9 1.1-1.1.8.5-1.4 2.1c-.3.3-.6.8-.9 1.4-.4.5-.6.8-.7 1.1-1 1.4-2 2.2-2.8 2.5-.9.3-1.8.1-2.6-.5-.7-.4-1.2-1.1-1.4-2-.2-.7-.1-1.5.3-2.3q-1 1.4-2.4 1.8c-.8.2-1.7 0-2.5-.6q-1.5-1.2-1.6-2.9c-.1-1.1.4-2.6 1.6-4.2.3-.4.5-.7.8-1 .6-.8 1-1.3 1.1-1.4l1.4-2 .8.5-.7 1.3zm-12-3.8c-.7 1-1 2-1 2.7s.5 1.4 1.3 2 1.5.8 2.2.6c.6-.1 1.3-.6 1.9-1.5.8-1 1.2-1.7 1.4-2l-4.6-3.2c-.1.1-.5.6-1.2 1.4m6.1 3.3-.6.8q-.8 1-.6 2c.2.6.6 1.3 1.3 1.8.7.4 1.3.6 2 .6.5-.2 1.1-.6 1.8-1.6.3-.3.5-.7.7-1.1l.2-.3-4.2-3.1c0 .2-.3.4-.6.9m-2.8 14.3-1.3 1.6-12.9-4.5-.9.8-.7-.6 3-3.9.8.6-.9 1.3 2.7 1.1 3.4-4.3-1.6-2.4-1.1 1.1-.8-.6 2.8-3.4.7.6-.5 1.1zm-3.1-1.1 1.5.6-1-1.4-3.5-5.2-2.9 3.7zm-14.3 1.2q1.7-.5 3.4 0c1.1.3 2.2 1 3.3 1.9q1.6 1.4 2.3 3.1.6 1.7.3 3.4c-.3 1.2-.8 2.2-1.6 3.2-.6.7-1.5 1.5-2.6 2.3l-.5.4-2.4-2.4.9-.9 2.1 1.2c.2 0 .5-.2.9-.5.4-.2.8-.6 1.1-1.1.6-.5.9-1.3.9-2.1.1-.8-.1-1.5-.6-2.4-.5-.8-1-1.7-2-2.5-1-.7-1.8-1.4-2.7-1.7q-1.4-.5-2.7-.4-1.2.1-2.2 1.2c-.4.5-.7.9-.8 1.3-.2.4-.2.7-.3 1l.9 1.7-.9.8-1.7-2.1q.2-.2.6-1c.2-.5.4-.8.6-1.2q.3-.5.9-1.3c.7-.8 1.7-1.6 2.8-1.9m-3.9 20q.5 1.6.1 3c-.3 1-.7 1.9-1.5 2.6-.9.9-1.8 1.4-2.8 1.7-1 .2-2.1.1-3.1-.2-1-.4-2.1-1.1-3.1-2-1-1-1.8-2.1-2.2-3.3s-.6-2.3-.3-3.4c.1-1 .7-2 1.4-2.8.9-.9 1.8-1.5 2.9-1.8.9-.3 2-.2 3.1.2 1 .4 2 1 3 1.9l2.1-2.2-4-3.8-1.2 1-.7-.7 3.6-3.7.6.6-.9 1.3 8.3 8 1.2-.9.6.7-3.5 3.6-.6-.7.9-1.3-3.6-3.5-2.1 2.2c.9 1.3 1.5 2.3 1.8 3.5m-1.2 1.7c-.3-1.2-1.1-2.6-2.6-4-1.3-1.2-2.6-2-3.9-2.2-1.2-.3-2.3 0-3.2.9-.8.9-1.1 1.9-.8 3.1s1.1 2.5 2.7 4c1.3 1.2 2.5 2 3.8 2.3q1.8.45 3-.9c.9-.9 1.2-2 1-3.2m-17.1 9c-.8-.1-1.8-.3-3.1-.7q-1.2-.3-1.9-.5-.6-.2-1 0l-.7.4-.6-.7 1.6-1.6c.3-.1.6-.3 1.3-.1q.8.2 2.5.7c1.3.4 2.2.7 3 .8.7.2 1.2.1 1.5-.2l.8-.8-3.6-3.9-1.4.9-.6-.7 3.7-3.4.7.6-1.1 1.2 7.9 8.5 1.3-.9.6.7-3.6 3.4-.7-.7 1-1.2-3.6-4-1.2 1.1.8 6.6 1.3-.9.6.7-3.4 3.2-.6-.7.9-1.2-.7-6.7c-.2.2-.9.3-1.7.1m-9.3 1.2c1.1-.1 2.2.1 3.1.6 1.1.5 2 1.4 2.9 2.5 1 1 1.6 2.2 1.9 3.4s.3 2.3-.1 3.3c-.4 1.1-1 2-1.9 2.8-1.4 1.2-3 1.7-4.6 1.5-1.5-.2-3-1.2-4.5-2.8-.9-1.1-1.5-2.3-1.8-3.5s-.3-2.3.1-3.4c.3-1.1.9-2 1.9-2.8.9-1 2-1.5 3-1.6m6.6 8.6c-.2-1.3-.9-2.7-2.3-4.2-1.2-1.4-2.4-2.2-3.6-2.7-1.2-.4-2.3-.2-3.2.6q-1.4 1.2-1.1 3.1.2 1.9 2.2 4.2c1.2 1.5 2.4 2.3 3.6 2.7q1.9.5 3.3-.6 1.3-1.2 1.1-3.1m-8.7 8.9 1.3-.8.6.8-1.9 1.5c-.4.2-.8.6-1.2 1.1-.4.4-.8.7-1.1.9-1.4 1-2.4 1.5-3.3 1.6-1 0-1.8-.4-2.4-1.1-.5-.7-.8-1.5-.8-2.3q0-1.2.9-2.2-1.4 1.1-2.8 1.1c-.9-.1-1.7-.5-2.3-1.2-.7-1.1-1-2.2-.8-3.3.2-1.2 1.1-2.5 2.7-3.7.4-.3.7-.5 1-.7.8-.6 1.3-.9 1.4-1.1l1.9-1.5.6.8-1.2 1.1zm-10.4-6.9c-1 .8-1.5 1.5-1.6 2.3s.1 1.6.7 2.4c.6.7 1.2 1.1 1.9 1.2s1.4-.3 2.3-.9c1-.8 1.7-1.3 1.8-1.6l-3.4-4.4c-.3-.1-.9.3-1.6 1zm4.9 4.8-.8.6q-1 .8-1.1 1.9c-.1.6.1 1.3.8 2 .5.7 1.1 1 1.7 1.1.6 0 1.3-.3 2.2-1 .4-.3.7-.6 1.1-.9l.2-.2-3.1-4.1c-.4.1-.6.3-1 .6" style="mix-blend-mode:overlay"/><path fill-rule="evenodd" d="M113.4 110.4c-1.1 0-2-.9-2-2s.9-2 2-2 2 .9 2 2-.9 2-2 2m404.5-25.6c-1.1 0-2-.9-2-2s.9-2 2-2 2 .9 2 2-.9 2-2 2" style="mix-blend-mode:overlay"/></svg>