<svg xmlns="http://www.w3.org/2000/svg" width="529" height="344" fill="none" viewBox="0 0 529 344"><path fill="#fbce51" d="m329.279 306.814-68.422-53.469-140.371 83.624 72.071-83.624-131.562 90.469 28.5-46.5-78 11.5 81-69L0 234.806l140.185-50.782-125.88-31.359 147.443-4.402-93.528-42.912 71.965 6.381L2.629 5.794l182.388 81.525L155.527 0l51.724 59.417 20.734-31.96 27.658 49.834 18.105-35.342 9.36 40.138 60.457-35.249-21.656 64.894 31.825-19.182-24.455 35.313 199.711-2.18-199.711 39.001 45.823 11.108-36.797 2.777 144.41 51.377-135.22-9.632 60.084 51.736-85.67-21.736z"/></svg>